# xmcd
#
# Track frame offsets: 
#        150
#        1350
#        16012
#        28087
#        40387
#        45300
#        56662
#        73500
#        87112
#        101437
#        115162
#        126562
#        140587
#        149737
#        162037
#        175687
#        187912
#        200437
#        213787
#        226237
#        238537
#        256012
#        268462
#        281137
#        291562
#        304387
#        318712
#
# Disc length: 4435 seconds
#
# Revision: 1
# Processed by: cddbd v1.5.2PL0 Copyright (c) Steve Scherf et al.
# Submitted via: ExactAudioCopy v1.0b1
#
DISCID=8e11511b
DTITLE=Various Artist - Blues, Boogie, and Bop - The 1940s Mercury Sess
DTITLE=ions - Disc 7 of 7
DYEAR=1995
DGENRE=Blues
TTITLE0=Albert Ammons - Oh, Lady, Be Good! (alt - take 1 - false start
TTITLE0=) (mono)
TTITLE1=Albert Ammons - Oh, Lady, Be Good! (alt - take 2) (mono)
TTITLE2=Albert Ammons - Oh, Lady, Be Good! (master - take 3 - true spe
TTITLE2=ed) (mono)
TTITLE3=Albert Ammons - Kilroy Boogie (alt - take 1) (mono)
TTITLE4=Albert Ammons - Kilroy Boogie (alt - take 2 - breakdown) (mono
TTITLE4=)
TTITLE5=Albert Ammons - Kilroy Boogie (alt - take 3) (mono)
TTITLE6=Albert Ammons - St. Louis Boogie (alt - take 1) (mono)
TTITLE7=Albert Ammons - St. Louis Boogie (alt - take 2) (mono)
TTITLE8=Helen Humes - Jet Propelled Papa (alt - take 1) (mono)
TTITLE9=Helen Humes - I Just Refuse To Sing The Blues (alt - take 3) (
TTITLE9=mono)
TTITLE10=Helen Humes - They Raided The Joint (alt - take 2) (mono)
TTITLE11=Helen Humes - Mad About You (alt - take 3) (mono)
TTITLE12=Helen Humes - Flippity Flop Flop (alt - take 2) (mono)
TTITLE13=Helen Humes - Today I Sing The Blues (alt - take 2) (mono)
TTITLE14=Jay McShann - Bucktown Boogie (alt - take 1) (mono)
TTITLE15=Jay McShann - Voodoo Woman Blues (alt - take 1) (mono)
TTITLE16=Eddie 'Cleanhead' Vinson - Br'er Rabbit (take 1) (mono)
TTITLE17=Eddie 'Cleanhead' Vinson - Boogie Woogie Holiday (take 2) (mo
TTITLE17=no)
TTITLE18=Eddie 'Cleanhead' Vinson - Too Many Women Blues (alt - take 2
TTITLE18=) (mono)
TTITLE19=Eddie 'Cleanhead' Vinson - I Like To Be Home Blues (take 4) (
TTITLE19=mono)
TTITLE20=Eddie 'Cleanhead' Vinson - Three O'Clock In The Morning (take
TTITLE20=1) (mono)
TTITLE21=Eddie 'Cleanhead' Vinson - Gonna Send You Back Where I Got Yo
TTITLE21=u From (alt - early version 04-47) (mono)
TTITLE22=Cootie Williams - Typhoon (alt - take 3) (mono)
TTITLE23=Cootie Williams - Mercenary Papa (alt - take 2) (mono)
TTITLE24=Cootie Williams - Doin' The Gator Tail (mono)
TTITLE25=Mary Lou Williams - Just An Idea (mono)
TTITLE26=Mary Lou Williams - Just You, Just Me (mono)
EXTD=
EXTT0=
EXTT1=
EXTT2=
EXTT3=
EXTT4=
EXTT5=
EXTT6=
EXTT7=
EXTT8=
EXTT9=
EXTT10=
EXTT11=
EXTT12=
EXTT13=
EXTT14=
EXTT15=
EXTT16=
EXTT17=
EXTT18=
EXTT19=
EXTT20=
EXTT21=
EXTT22=
EXTT23=
EXTT24=
EXTT25=
EXTT26=
PLAYORDER=
